# xmcd CD database file
#
# Track frame offsets:
#	150
#	13607
#	26080
#	39640
#	50252
#	68027
#	78692
#	92702
#	116977
#	143792
#	160175
#	171975
#	193592
#	207165
#	220984
#	234040
#	247015
#	279457
#	295725
#	309065
#
# Disc length: 4442 seconds
#
# Revision: 6
# Processed by: cddbd v1.5.2PL0 Copyright (c) Steve Scherf et al.
# Submitted via: CDex 1.70beta2
#
DISCID=1b115814
DTITLE=Sly and The Family Stone - Anthology
DYEAR=1981
DGENRE=Funk
TTITLE0=Dance To The Music
TTITLE1=M'Lady
TTITLE2=Life
TTITLE3=Fun
TTITLE4=Sing A Simple Song
TTITLE5=Everyday People
TTITLE6=Stand!
TTITLE7=I Want To Take You Higher
TTITLE8=Don't Call Me Nigger, Whitey
TTITLE9=You Can Make It If You Try
TTITLE10=Hot Fun In The Summertime
TTITLE11=Thank You (Falettinme Be Mice Elf Agin)
TTITLE12=Everybody Is A Star
TTITLE13=Family Affair
TTITLE14=Runnin' Away
TTITLE15=(You Caught Me) Smilin'
TTITLE16=Thank You For Talkin' To Me Africa
TTITLE17=Babies Makin' Babies
TTITLE18=If You Want Me To Stay
TTITLE19=Que Sera, Sera (Whatever Will Be, Will Be)
EXTD=YEAR: 1981
EXTT0=
EXTT1=
EXTT2=
EXTT3=
EXTT4=
EXTT5=
EXTT6=
EXTT7=
EXTT8=
EXTT9=
EXTT10=
EXTT11=
EXTT12=
EXTT13=
EXTT14=
EXTT15=
EXTT16=
EXTT17=
EXTT18=
EXTT19=
PLAYORDER=
